<svg width="256" height="256" viewBox="0 0 256 256" xmlns="http://www.w3.org/2000/svg">
<rect x="12" y="12" width="232" height="232" rx="52" fill="#2b2b2f"/>
<rect x="58" y="56" width="140" height="164" rx="14" fill="#3c3c42" stroke="#1f1f22" stroke-width="2"/>
<rect x="72" y="78" width="112" height="128" rx="6" fill="#e9e9ec"/>
<path d="M72 84 v116 a6 6 0 0 0 6 6 h84 l22 -22 v-100 a6 6 0 0 0 -6 -6 h-100 a6 6 0 0 0 -6 6 z" fill="#f4f4f6"/>
<path d="M162 206 l22 -22 h-16 a6 6 0 0 0 -6 6 z" fill="#cfcfd4"/>
<rect x="102" y="52" width="52" height="34" rx="7" fill="#c7c7cc"/>
<rect x="106" y="48" width="44" height="26" rx="6" fill="#dcdce0"/>
<path d="M110 48 q18 -20 36 0" fill="none" stroke="#a9a9af" stroke-width="4" stroke-linecap="round"/>
<circle cx="128" cy="44" r="6" fill="#b3b3b8" stroke="#8f8f95" stroke-width="2"/>
</svg>
